HIERARCHY
ROOT Hips
{
	OFFSET -0.001795 -0.223333 0.028219
	CHANNELS 6 Xposition Yposition Zposition Zrotation Yrotation Xrotation 
	JOINT LeftUpLeg
	{
		OFFSET 0.069520 -0.091406 -0.006815
		CHANNELS 3 Zrotation Yrotation Xrotation
		JOINT LeftLeg
		{
			OFFSET 0.034277 -0.375199 -0.004496
			CHANNELS 3 Zrotation Yrotation Xrotation
			JOINT LeftFoot
			{
				OFFSET -0.013596 -0.397961 -0.043693
				CHANNELS 3 Zrotation Yrotation Xrotation
				JOINT LeftToe
				{
					OFFSET 0.026358 -0.055791 0.119288
					CHANNELS 3 Zrotation Yrotation Xrotation
					End Site
					{
						OFFSET 0.000000 0.000000 0.000000
					}
				}
			}
		}
	}
	JOINT RightUpLeg
	{
		OFFSET -0.067670 -0.090522 -0.004320
		CHANNELS 3 Zrotation Yrotation Xrotation
		JOINT RightLeg
		{
			OFFSET -0.038290 -0.382569 -0.008850
			CHANNELS 3 Zrotation Yrotation Xrotation
			JOINT RightFoot
			{
				OFFSET 0.015774 -0.398415 -0.042312
				CHANNELS 3 Zrotation Yrotation Xrotation
				JOINT RightToe
				{
					OFFSET -0.025372 -0.048144 0.123348
					CHANNELS 3 Zrotation Yrotation Xrotation
					End Site
					{
						OFFSET 0.000000 0.000000 0.000000
					}
				}
			}
		}
	}
	JOINT Spine
	{
		OFFSET -0.002533 0.108963 -0.026696
		CHANNELS 3 Zrotation Yrotation Xrotation
		JOINT Spine1
		{
			OFFSET 0.005487 0.135180 0.001092
			CHANNELS 3 Zrotation Yrotation Xrotation
			JOINT Spine2
			{
				OFFSET 0.001457 0.052922 0.025425
				CHANNELS 3 Zrotation Yrotation Xrotation
				JOINT Neck
				{
					OFFSET -0.002778 0.213870 -0.042857
					CHANNELS 3 Zrotation Yrotation Xrotation
					JOINT Head
					{
						OFFSET 0.005152 0.064970 0.051349
						CHANNELS 3 Zrotation Yrotation Xrotation
						End Site
						{
							OFFSET 0.000000 0.000000 0.000000
						}
					}
				}
				JOINT LeftShoulder
				{
					OFFSET 0.078845 0.121749 -0.034090
					CHANNELS 3 Zrotation Yrotation Xrotation
					JOINT LeftArm
					{
						OFFSET 0.090977 0.030469 -0.008868
						CHANNELS 3 Zrotation Yrotation Xrotation
						JOINT LeftForeArm
						{
							OFFSET 0.259612 -0.012772 -0.027456
							CHANNELS 3 Zrotation Yrotation Xrotation
							JOINT LeftHand
							{
								OFFSET 0.249234 0.008986 -0.001171
								CHANNELS 3 Zrotation Yrotation Xrotation
								End Site
								{
									OFFSET 0.000000 0.000000 0.000000
								}
							}
						}
					}
				}
				JOINT RightShoulder
				{
					OFFSET -0.081759 0.118833 -0.038615
					CHANNELS 3 Zrotation Yrotation Xrotation
					JOINT RightArm
					{
						OFFSET -0.096012 0.032551 -0.009143
						CHANNELS 3 Zrotation Yrotation Xrotation
						JOINT RightForeArm
						{
							OFFSET -0.253742 -0.013329 -0.021401
							CHANNELS 3 Zrotation Yrotation Xrotation
							JOINT RightHand
							{
								OFFSET -0.255298 0.007772 -0.005559
								CHANNELS 3 Zrotation Yrotation Xrotation
								End Site
								{
									OFFSET 0.000000 0.000000 0.000000
								}
							}
						}
					}
				}
			}
		}
	}
}
MOTION
Frames: 10
Frame Time: 0.050000
0.000000 0.805288 0.000000 1.217672 -20.071274 10.634339 -2.492007 -0.031860 -64.060000 4.546010 -1.643519 55.670226 0.761706 1.757255 0.884480 0.000000 0.000000 0.000000 -5.230322 6.321748 -44.692850 13.499704 -0.657047 57.561423 -10.349685 -29.867548 -21.593012 0.000000 0.000000 0.000000 6.587890 -0.632460 49.376854 -4.401819 1.254638 -26.222387 -2.003522 11.766776 30.858345 14.851806 -5.293234 -31.750704 0.000000 0.000000 0.000000 -24.877510 -8.299163 2.781441 -54.342585 5.607066 -11.394689 -40.718313 -63.967077 30.404876 0.000000 0.000000 0.000000 20.911878 0.075288 -0.057398 65.172350 1.005267 -8.873011 13.785615 68.137109 15.867213 0.000000 0.000000 0.000000 
-0.000710 0.802717 0.006796 0.031102 -19.939634 12.248810 -3.865292 -0.776520 -65.448750 8.449908 -4.462050 55.066319 -0.725117 0.014413 4.083051 0.000000 0.000000 0.000000 -5.169921 7.129198 -48.082640 14.893891 -1.756732 60.285322 -11.127455 -32.655180 -16.765554 0.000000 0.000000 0.000000 7.095250 -0.834931 51.666134 -4.306429 1.190066 -27.065735 -0.056529 13.916648 29.833829 14.825297 -3.864784 -36.089556 0.000000 0.000000 0.000000 -26.528762 -8.936893 1.924183 -50.188109 7.746280 -10.733048 -53.206756 -63.182791 37.363705 0.000000 0.000000 0.000000 20.930569 -3.337227 -1.371896 66.137386 -0.271947 -9.330780 15.886121 72.022428 19.555940 0.000000 0.000000 0.000000 
-0.000096 0.799520 0.014427 1.101358 -19.644700 12.952002 -5.325410 -1.756478 -66.966162 8.539113 -4.765957 55.232418 -0.404821 -0.029062 2.243057 0.000000 0.000000 0.000000 -6.385122 6.710258 -48.528935 14.982932 -1.973697 60.420602 -11.373478 -35.864740 -20.639537 0.000000 0.000000 0.000000 7.628014 -1.175333 51.871381 -5.772981 1.460639 -26.929743 -1.091553 12.539262 28.750711 14.957958 -4.766387 -32.891581 0.000000 0.000000 0.000000 -27.031971 -8.154668 1.874093 -50.172969 9.580192 -11.522934 -53.416789 -62.819542 37.544808 0.000000 0.000000 0.000000 26.016704 -2.331518 -1.328078 61.621130 -1.402967 -9.639058 24.145564 72.791540 25.163103 0.000000 0.000000 0.000000 
0.002239 0.800292 0.023574 1.508259 -19.947487 14.036524 -6.962010 -2.690099 -68.190109 9.721340 -5.699083 55.129979 -1.787080 -1.897112 4.169478 0.000000 0.000000 0.000000 -8.209773 6.649791 -51.263543 15.887767 -2.847563 62.053267 -12.086923 -36.537024 -15.462871 0.000000 0.000000 0.000000 7.276584 -0.817977 54.002507 -4.304104 1.187973 -29.861914 -1.103304 13.733730 30.363290 14.189747 -3.693840 -35.212843 0.000000 0.000000 0.000000 -28.223619 -8.960031 1.790041 -49.717941 11.236754 -11.931455 -58.336955 -62.569395 40.493965 0.000000 0.000000 0.000000 25.183570 -2.555897 -0.891017 62.292184 -0.700322 -9.501970 23.180364 74.790798 26.069773 0.000000 0.000000 0.000000 
0.005825 0.800744 0.034179 2.066626 -20.328657 16.047255 -7.618632 -2.931848 -70.399416 8.746410 -5.315752 55.492162 -1.505791 -1.434656 3.989267 0.000000 0.000000 0.000000 -10.272324 6.182879 -52.491481 15.970338 -3.059043 61.819197 -11.451650 -35.050473 -16.052241 0.000000 0.000000 0.000000 7.137602 -0.771374 52.983394 -4.902844 1.260263 -28.587043 -0.883330 13.340683 28.700610 13.321723 -3.289357 -35.077877 0.000000 0.000000 0.000000 -27.899666 -9.040562 2.043684 -51.365673 12.469656 -12.710115 -60.477380 -61.721231 41.440213 0.000000 0.000000 0.000000 26.709417 -2.037207 -0.871374 59.738528 -0.249827 -8.808474 19.450471 75.690228 22.862588 0.000000 0.000000 0.000000 
0.009931 0.801266 0.046110 2.183175 -20.418364 17.338521 -8.208186 -3.283203 -71.740242 9.302880 -5.848738 55.351095 -1.879823 -1.991595 4.318158 0.000000 0.000000 0.000000 -11.650096 5.904602 -53.801219 16.453430 -3.621052 62.650689 -11.804618 -36.067293 -14.683508 0.000000 0.000000 0.000000 7.263578 -0.771695 53.888576 -4.190294 1.147677 -29.675015 -1.310097 14.056519 28.875106 12.775146 -2.783883 -35.572344 0.000000 0.000000 0.000000 -28.099069 -10.106969 2.398058 -51.159794 12.937084 -12.709392 -62.113320 -61.771770 42.357908 0.000000 0.000000 0.000000 26.870342 -1.233351 -0.006667 59.114595 0.222336 -8.560056 12.561101 76.349951 17.868547 0.000000 0.000000 0.000000 
0.013118 0.804234 0.058653 2.056537 -20.220976 18.860946 -8.472516 -3.533933 -72.655237 9.514552 -6.145305 55.311797 -1.940297 -2.317807 3.798342 0.000000 0.000000 0.000000 -12.448186 5.656114 -54.397208 16.460679 -3.834231 62.714176 -11.604891 -35.778795 -15.081075 0.000000 0.000000 0.000000 7.148316 -0.780104 54.284664 -4.366142 1.159803 -29.725573 -1.282634 14.408161 28.336328 13.646779 -3.195063 -34.922765 0.000000 0.000000 0.000000 -28.021455 -10.602784 2.477350 -50.853651 12.929761 -12.469435 -64.269498 -62.517756 44.264636 0.000000 0.000000 0.000000 28.408350 -0.976025 0.359746 57.111122 1.113018 -7.961570 5.424750 75.961600 12.122835 0.000000 0.000000 0.000000 
0.014883 0.808396 0.070931 2.166761 -19.468079 19.909869 -8.392366 -3.840872 -72.741952 9.673810 -6.361671 55.129040 -2.427188 -3.790831 2.599826 0.000000 0.000000 0.000000 -12.631244 5.352410 -54.216556 15.548131 -3.455659 62.495180 -11.722711 -36.093977 -14.913307 0.000000 0.000000 0.000000 6.664673 -0.743184 54.679866 -4.197119 1.125389 -30.165189 -1.418307 14.421029 28.103275 13.627487 -3.165693 -34.606551 0.000000 0.000000 0.000000 -28.444151 -11.399644 2.825314 -49.605398 12.467251 -11.845840 -65.368272 -63.626003 45.793326 0.000000 0.000000 0.000000 29.432869 -0.478450 0.893771 55.858319 1.417752 -7.761453 2.577593 75.998418 9.903025 0.000000 0.000000 0.000000 
0.014914 0.813982 0.082090 2.190673 -18.922626 21.156411 -7.906247 -3.755505 -72.804981 9.230515 -6.100885 54.653614 -2.714391 -4.853483 1.607425 0.000000 0.000000 0.000000 -11.996576 5.372203 -53.687075 14.083281 -2.529755 61.252803 -11.516778 -35.706720 -15.803119 0.000000 0.000000 0.000000 5.912110 -0.526494 54.419611 -3.894963 1.076965 -30.097297 -1.244255 14.714228 27.786082 13.944089 -3.186194 -34.717659 0.000000 0.000000 0.000000 -28.846332 -12.288647 3.181212 -48.637204 11.739179 -11.167460 -67.719347 -65.584569 49.036472 0.000000 0.000000 0.000000 29.715516 -0.217770 1.315495 55.128962 1.542598 -7.635101 0.086581 74.848474 7.837350 0.000000 0.000000 0.000000 
0.014167 0.819394 0.091881 2.008581 -18.367883 22.365280 -7.922540 -3.997985 -73.100378 9.509048 -6.334389 53.983935 -3.496862 -6.138575 2.190973 0.000000 0.000000 0.000000 -11.102479 5.512655 -53.232543 12.496918 -1.532086 60.352183 -11.390492 -35.175634 -16.015963 0.000000 0.000000 0.000000 5.393981 -0.399273 54.474032 -3.562949 1.036443 -30.495013 -1.597885 14.923285 27.932865 14.785753 -3.217968 -36.207326 0.000000 0.000000 0.000000 -28.177606 -13.239973 3.700109 -48.440689 10.489972 -10.627854 -70.545301 -68.170667 53.430828 0.000000 0.000000 0.000000 29.536029 -0.183993 1.542757 55.182833 2.074056 -7.434363 -0.345136 74.463263 7.611891 0.000000 0.000000 0.000000 
